@startuml Cyborg_outline

!theme cyborg-outline

title Relationships - Class Diagram

class Dwelling {
  +Int Windows
  +void LockTheDoor()
}

class Apartment
class House
class Commune
class Window
class Door

Dwelling <|-down- Apartment: Inheritance
Dwelling <|-down- Commune: Inheritance
Dwelling <|-down- House: Inheritance
Dwelling "1" *-up- "many" Window: Composition
Dwelling "1" *-up- "many" Door: Composition

@enduml