@startuml systemmodel
!theme light from ../../../doubleslash/v3
left to right direction
skinparam componentStyle rectangle

title "System model with C4-Level 1-System context and 2-Containers"

' Definition of objects
rectangle "System context" {

    package "Container " <<container>> {
        [Component 1]
        [Component 2] <<component>>
    }
    interface "Interface 1" as IF1
    note top of IF1
        This is a short
        description of the interface
    end note
}

agent "Calling System" as No2<<external>>
agent "Other\nlegacy system" as LegacySystem<<external>>
database "External\ndatabase" as eDB<<database.external>>
interface "Interface 2" as IF2 <<interface.external>>

IF1 <|-- [Component 1] : implements
IF2 <|-- LegacySystem : implements
No2 ~~> IF1 : use

[Component 1] ~~> eDB : use
[Component 2] ~~> IF2 : use



' Context Level
rectangle "Online Shop System" <<context>> {

    ' Container Level
    rectangle "Web Application" <<container>> {
        ' Component Level
        rectangle "Order Management" <<component>> {
            ' Module Level
            rectangle "Order Service" <<module>> {
                ' Code Level
                rectangle "OrderController.java" <<code>>
                rectangle "OrderRepository.java" <<code>>
            }
            rectangle "Payment Service" <<module>> {
                rectangle "PaymentController.java" <<code>>
                rectangle "PaymentGatewayAdapter.java" <<code>>
            }
        }
        rectangle "User Management" <<component>> {
            rectangle "User Service" <<module>> {
                rectangle "UserController.java" <<code>>
                rectangle "UserRepository.java" <<code>>
            }
        }
    }
    rectangle "DWH" <<container>> {
        database "PostgreSQL"
    }
}

agent "Payment Provider" as PaymentProvider <<external>>
agent "Shipping Service" as ShippingService <<external>>

' Example relationships
[Order Service] --> [PostgreSQL] : stores data
[User Service] --> [PostgreSQL] : stores data
[Order Service] --> ShippingService : requests shipping



@enduml
